<svg width="22" height="22" viewBox="0 0 22 22" fill="none" xmlns="http://www.w3.org/2000/svg">
<path d="M18.7183 4.19833C18.2584 3.73686 17.712 3.37071 17.1103 3.12087C16.5086 2.87104 15.8635 2.74243 15.212 2.74243C14.5606 2.74243 13.9155 2.87104 13.3138 3.12087C12.7121 3.37071 12.1657 3.73686 11.7058 4.19833L11 4.91334L10.2941 4.19833C9.83425 3.73686 9.28781 3.37071 8.68613 3.12087C8.08445 2.87104 7.43936 2.74243 6.78787 2.74243C6.13638 2.74243 5.4913 2.87104 4.88962 3.12087C4.28794 3.37071 3.7415 3.73686 3.28162 4.19833C1.33829 6.14167 1.21912 9.42334 3.66662 11.9167L11 19.25L18.3333 11.9167C20.7808 9.42334 20.6616 6.14167 18.7183 4.19833Z" stroke="#676B70" stroke-width="2" stroke-linecap="round" stroke-linejoin="round"/>
</svg>
